/* XPM */
static char * close_inactive_xpm[] = {
"18 18 88 1",
" 	c None",
".	c #33373A",
"+	c #2F2F30",
"@	c #2E2F2E",
"#	c #2D2D2D",
"$	c #2F3030",
"%	c #393939",
"&	c #4E4F50",
"*	c #878A8D",
"=	c #A3A6A9",
"-	c #2E2E2F",
";	c #2D2E2E",
">	c #2E2D2D",
",	c #2C2C2C",
"'	c #2B2B2B",
")	c #3D3D3E",
"!	c #78797A",
"~	c #CACDCF",
"{	c #FAFBFC",
"]	c #F5F6F7",
"^	c #F0F0F1",
"/	c #CACCCF",
"(	c #77797A",
"_	c #444647",
":	c #A9ACAE",
"<	c #EEF0F0",
"[	c #EEEFEF",
"}	c #E4E5E6",
"|	c #E5E6E7",
"1	c #3C3D3D",
"2	c #ECEEEF",
"3	c #E9EAEB",
"4	c #EBECED",
"5	c #E6E7E8",
"6	c #3C3D3E",
"7	c #787A7D",
"8	c #EEEFF0",
"9	c #C9CBCB",
"0	c #BABCBD",
"a	c #39393A",
"b	c #585A5B",
"c	c #A4A6A8",
"d	c #E7E8E9",
"e	c #4D4F50",
"f	c #535557",
"g	c #A8AAAC",
"h	c #ECEDEE",
"i	c #ECEDED",
"j	c #4D4F4F",
"k	c #85888B",
"l	c #F6F6F7",
"m	c #464748",
"n	c #AEB1B3",
"o	c #AEB1B4",
"p	c #84888B",
"q	c #A3A4A7",
"r	c #F1F1F1",
"s	c #414143",
"t	c #F1F2F1",
"u	c #A2A5A6",
"v	c #A2A4A6",
"w	c #85878B",
"x	c #464749",
"y	c #84878B",
"z	c #4D4E4E",
"A	c #F9FBFD",
"B	c #E5E6E8",
"C	c #F9FBFC",
"D	c #C8CBCD",
"E	c #585B5C",
"F	c #383939",
"G	c #757879",
"H	c #EDEFF0",
"I	c #3B3C3D",
"J	c #A7A9AC",
"K	c #EDEEEF",
"L	c #EDEEEE",
"M	c #434446",
"N	c #A7A9AB",
"O	c #434445",
"P	c #757778",
"Q	c #C7CACC",
"R	c #F6F7F7",
"S	c #F1F2F3",
"T	c #2F2F2F",
"U	c #4C4D4F",
"V	c #828589",
"W	c #A0A3A6",
".+@#$%&*==*&%$#-;;",
">,')!~{]^^]{/()'##",
"#'_:<[}}||}}[<:_'#",
"#1:2345||||5432:6#",
"$78390|5||5|093<($",
"a~[40bcd||dcb04[/%",
"e{}5|cfghigfc|5}{j",
"kl}|5dgmnomgd5|}lp",
"qr||||hnssoi||||tu",
"qr||||iossnh||||tv",
"wl}|5dgxonmgd5|}ly",
"zA}5|cfgihgfcB5}C&",
"%D840bcd||dcE048DF",
"+GH390|5||5B093HG+",
"#IJK345||||543LJI#",
"#'MJH8}}||}}8HNO'#",
"##'IPQCRSSRCQPI'##",
"####T%UVWWVU%T####"};
