/* XPM */
static char * close_active_xpm[] = {
"18 18 81 1",
" 	c None",
".	c #333639",
"+	c #2E3031",
"@	c #2D2E2F",
"#	c #2D2D2D",
"$	c #2E2E2E",
"%	c #3A3A3B",
"&	c #505152",
"*	c #888A8E",
"=	c #A6A9AC",
"-	c #2D2E2E",
";	c #2D2E2D",
">	c #2D2C2C",
",	c #282828",
"'	c #3D3E41",
")	c #7B7C7D",
"!	c #CED2D5",
"~	c #FFFFFF",
"{	c #FAFAFB",
"]	c #CED1D4",
"^	c #282829",
"/	c #464849",
"(	c #B3B6B8",
"_	c #F2F3F4",
":	c #F7F8F8",
"<	c #EFF0F1",
"[	c #EEEFF0",
"}	c #F7F8F9",
"|	c #3C3E40",
"1	c #B3B5B7",
"2	c #F1F2F3",
"3	c #F0F1F2",
"4	c #F4F5F6",
"5	c #2F2F2F",
"6	c #7C7E7F",
"7	c #E8E9EA",
"8	c #C1C3C4",
"9	c #F5F5F6",
"0	c #7B7C7C",
"a	c #363738",
"b	c #AEB0B3",
"c	c #CDD1D3",
"d	c #505254",
"e	c #ADAFB1",
"f	c #F3F4F5",
"g	c #505151",
"h	c #86898C",
"i	c #494B4C",
"j	c #B2B5B7",
"k	c #B3B5B8",
"l	c #86898B",
"m	c #A4A7AA",
"n	c #FAFBFB",
"o	c #414243",
"p	c #A3A6A9",
"q	c #85888B",
"r	c #494B4D",
"s	c #86888B",
"t	c #4F5051",
"u	c #3A3A3A",
"v	c #CCCFD3",
"w	c #36373A",
"x	c #F8F8F9",
"y	c #CCCFD2",
"z	c #7A7B7C",
"A	c #F1F3F4",
"B	c #F1F2F4",
"C	c #3B3C3E",
"D	c #B2B4B6",
"E	c #B1B4B6",
"F	c #3B3D3E",
"G	c #292828",
"H	c #454648",
"I	c #B2B3B6",
"J	c #B0B3B5",
"K	c #444647",
"L	c #CBCED1",
"M	c #FAFBFC",
"N	c #393A3A",
"O	c #84868A",
"P	c #A1A5A7",
".+@#$%&*==*&%$#@@-",
";>,')!~~{{~~])',##",
"#^/(_:<[<<[<}_(/^#",
"#|1234[<<<<[4321|#",
"56_3789<<<<9873_0$",
"%]}48ab2<<2ba84}c%",
"&~<[9bdeffedb9[<~g",
"h~[<<2eijkie2<<[~l",
"mn<<<<fjookf<<<<np",
"mn<<<<fkoojf<<<<np",
"q~[<<2erkjie2<<[~s",
"t~<[9bdeffedb9[<~&",
"uv}48ab2<<2bw84xyu",
"$zA3789<<<<9873Bz$",
"#CD234[<<<<[432EF#",
"#GHIAx<[<<[<xAJKG#",
"##GCzL~~MM~~LzCG##",
"####$NtOPPOtN$####"};
