/* XPM */
static char * close_prelight_xpm[] = {
"18 18 77 1",
" 	c None",
".	c #333639",
"+	c #2E3031",
"@	c #2D2E2F",
"#	c #2D2D2D",
"$	c #2E2E2E",
"%	c #3A3A3B",
"&	c #515253",
"*	c #898C8F",
"=	c #A8AAAC",
"-	c #2D2E2E",
";	c #2D2E2D",
">	c #2D2C2C",
",	c #282828",
"'	c #3F4142",
")	c #7C7D7E",
"!	c #D4D7DA",
"~	c #FFFFFF",
"{	c #D4D7D9",
"]	c #454749",
"^	c #C1C3C4",
"/	c #FDFEFE",
"(	c #FDFEFF",
"_	c #2C2C2D",
":	c #3E4041",
"<	c #FEFEFE",
"[	c #2F2F2F",
"}	c #7E8081",
"|	c #C1C4C5",
"1	c #D4D6D9",
"2	c #363739",
"3	c #B5B7B9",
"4	c #D3D6D9",
"5	c #515153",
"6	c #505254",
"7	c #B5B7B8",
"8	c #505253",
"9	c #515152",
"0	c #888A8D",
"a	c #494A4C",
"b	c #B7BABC",
"c	c #B8BABC",
"d	c #494A4B",
"e	c #B4B7B8",
"f	c #878A8D",
"g	c #A6A9AB",
"h	c #B7BABB",
"i	c #424243",
"j	c #424244",
"k	c #A5A8AB",
"l	c #B8BABD",
"m	c #A5A8AA",
"n	c #86898C",
"o	c #B5B6B7",
"p	c #494B4D",
"q	c #484A4B",
"r	c #B4B5B6",
"s	c #87898C",
"t	c #505152",
"u	c #3A3A3A",
"v	c #D2D5D8",
"w	c #363839",
"x	c #D1D5D7",
"y	c #7C7D7D",
"z	c #FDFDFE",
"A	c #7C7C7D",
"B	c #3E3F41",
"C	c #BFC1C2",
"D	c #BFC1C3",
"E	c #444547",
"F	c #BFC0C2",
"G	c #3E3F40",
"H	c #D1D3D5",
"I	c #3E3E40",
"J	c #505151",
"K	c #85878B",
"L	c #A3A7A9",
".+@#$%&*==*&%$#@@-",
";>,')!~~~~~~{)',##",
"#,]^/~~~~~~~~(^],#",
"_:^~~~<~~~~~~~~^'#",
"[}/~~|~~~~~~|~~/)$",
"%1~~|23~~<~32|~~4%",
"5~~~~367~~783~~~~9",
"0~~~~~7abcde~<~~~f",
"g~~~~~~hijc~<~~~~k",
"g~~~~<~ljic~/~~~~m",
"n~~~<~oplcqr~~~~~s",
"t~~~~38o~~787~~~~&",
"uv~~|23~<<~3w|~~x%",
"$y/~~|~<<~~~|~~zA$",
"#BC~~~~~~~~~~~~DB#",
"#,EF/~~~~~~~~/CE,#",
"##,GyH~~~~~~HyI,##",
"####$uJKLLKJu$####"};
