/* XPM */
static char * hide_prelight_xpm[] = {
"18 18 49 1",
" 	c None",
".	c #2D2D2D",
"+	c #2F2F2F",
"@	c #2F2F2E",
"#	c #2B2B2B",
"$	c #242423",
"%	c #68686A",
"&	c #87888A",
"*	c #2C2C2D",
"=	c #282828",
"-	c #222121",
";	c #6D7074",
">	c #EFF0F1",
",	c #9D9FA0",
"'	c #2B2C2C",
")	c #292929",
"!	c #F0F0F1",
"~	c #6C6E71",
"{	c #222221",
"]	c #2D2C2C",
"^	c #74787E",
"/	c #F2F2F3",
"(	c #96989A",
"_	c #2D2D2E",
":	c #2C2C2C",
"<	c #F2F3F3",
"[	c #73777C",
"}	c #2D2D2C",
"|	c #282929",
"1	c #797C7E",
"2	c #EFEFF1",
"3	c #838485",
"4	c #313030",
"5	c #EFF0F2",
"6	c #77797D",
"7	c #292828",
"8	c #2C2D2E",
"9	c #86888B",
"0	c #EAEDEF",
"a	c #7D7E80",
"b	c #EAEDEE",
"c	c #85878A",
"d	c #2F3030",
"e	c #E9EBEC",
"f	c #86888A",
"g	c #2E2F2F",
"h	c #2C2D2D",
"i	c #808488",
"j	c #808387",
"..................",
"..................",
"..................",
"..................",
"..................",
"...+@#......#@+...",
"..$%&*=....=*&%$..",
"..-;>,')..)',!~{..",
"..]#^/(_::_(<[#}..",
"....|123443567....",
".....890aabc8.....",
".....#d9eefg#.....",
"......#hij*#......",
"..................",
"..................",
"..................",
"..................",
".................."};
