/* XPM */
static char * hide_active_xpm[] = {
"18 18 30 1",
" 	c None",
".	c #2D2D2D",
"+	c #2C2C2C",
"@	c #595A5C",
"#	c #76787A",
"$	c #595A5D",
"%	c #505357",
"&	c #E1E3E4",
"*	c #8D8F91",
"=	c #E2E3E5",
"-	c #4E5155",
";	c #4F5358",
">	c #E5E7E8",
",	c #87898A",
"'	c #E5E7E9",
")	c #4E5256",
"!	c #585A5E",
"~	c #DEE0E2",
"{	c #737577",
"]	c #737576",
"^	c #56585C",
"/	c #6E7173",
"(	c #D6D9DB",
"_	c #6E7072",
":	c #D5D9DA",
"<	c #6D7072",
"[	c #6F7173",
"}	c #DADBDD",
"|	c #616568",
"1	c #616467",
"..................",
"..................",
"..................",
"..................",
"..................",
"............+.....",
"...@#++....++#$+..",
"...%&*++..++*=-+..",
"....;>,+..+,')+...",
".....!~{..]~^+....",
"....../(__:<......",
".......[}}_.......",
"........|1........",
"..................",
"..................",
"..................",
"..................",
".................."};
