/* XPM */
static char * hide_inactive_xpm[] = {
"18 18 28 1",
" 	c None",
".	c #2D2D2D",
"+	c #57595A",
"@	c #717276",
"#	c #717376",
"$	c #58595A",
"%	c #57595B",
"&	c #CCCED1",
"*	c #898B8C",
"=	c #CBCDCF",
"-	c #565759",
";	c #626569",
">	c #D6D8DA",
",	c #7E7F81",
"'	c #626568",
")	c #6C6E70",
"!	c #6D7071",
"~	c #D5D8DA",
"{	c #6B6C6F",
"]	c #787B7C",
"^	c #D2D5D7",
"/	c #696B6C",
"(	c #D1D4D7",
"_	c #77797A",
":	c #787A7C",
"<	c #D0D2D4",
"[	c #747679",
"}	c #747678",
"..................",
"..................",
"..................",
"..................",
"..................",
"..................",
"...+@........#$...",
"...%&*......*=-...",
"....;>,....,>'....",
".....)>!..!~{.....",
"......]^//(_......",
".......:<<:.......",
"........[}........",
"..................",
"..................",
"..................",
"..................",
".................."};
