/* XPM */
static char * maximize_inactive_xpm[] = {
"19 18 31 1",
" 	c None",
".	c #2D2D2D",
"+	c #2C2C2C",
"@	c #2C2C2D",
"#	c #A5A7A9",
"$	c #A5A7A8",
"%	c #2C2D2D",
"&	c #AAABAD",
"*	c #BFC2C5",
"=	c #A9ABAC",
"-	c #A0A2A4",
";	c #C7CBCD",
">	c #454646",
",	c #C7CACD",
"'	c #A0A2A3",
")	c #8E9093",
"!	c #CED0D2",
"~	c #4F5052",
"{	c #8D8F91",
"]	c #8C8F93",
"^	c #5C5D5F",
"/	c #5D5D5F",
"(	c #CED0D1",
"_	c #8C8E91",
":	c #656769",
"<	c #BFC1C4",
"[	c #636465",
"}	c #BFC0C3",
"|	c #656669",
"1	c #414244",
"2	c #494A4C",
"...................",
"...................",
"...................",
"...................",
"...................",
"..........+........",
"......+@#$@+.......",
"......%&**=++......",
"......-;>>,'+......",
".....)!~++~!{......",
"....]!^...+/(_.....",
"...:<[......[}|....",
"...12........21....",
"...................",
"...................",
"...................",
"...................",
"..................+"};
