/* XPM */
static char * maximize_active_xpm[] = {
"19 18 34 1",
" 	c None",
".	c #2C2C2C",
"+	c #2D2D2D",
"@	c #2C2D2D",
"#	c #999B9E",
"$	c #9A9B9E",
"%	c #A2A4A5",
"&	c #C3C5C8",
"*	c #C5C7CA",
"=	c #A4A6A7",
"-	c #939598",
";	c #CBCED0",
">	c #454647",
",	c #CED1D3",
"'	c #95999A",
")	c #7A7D80",
"!	c #D8DADC",
"~	c #515354",
"{	c #525455",
"]	c #DBDDDF",
"^	c #7B7E81",
"/	c #878A8E",
"(	c #DCDDDF",
"_	c #5E6061",
":	c #5F6162",
"<	c #DEDFE1",
"[	c #888C8F",
"}	c #66686C",
"|	c #CFD0D3",
"1	c #5A5C5D",
"2	c #5B5D5E",
"3	c #D0D1D5",
"4	c #3E3E40",
"5	c #48484A",
"....++++++++++++...",
"..+++++++++++++++..",
"++++++++++++++++++.",
"+++++++++++++++++++",
"+++++++++++++++++++",
"+++++++.+++++++++++",
"+++++++@#$@.+++++++",
"++++++@%&*=@.++++++",
"++++++-;>>,'+++++++",
"+++++)!~..{]^++++++",
"++++/(_.++.:<[+++++",
"+++}|1..++..23}++++",
"+++45++++++..54++++",
"+++++++++++++++++++",
"+++++++++++++++++++",
"+++++++++++++++++++",
"+++++++++++++++++++",
"+++++++++++++++++++"};
