/* XPM */
static char * maximize_prelight_xpm[] = {
"19 18 48 1",
" 	c None",
".	c #2D2D2D",
"+	c #2C2C2C",
"@	c #2A2A2A",
"#	c #3C3E3F",
"$	c #3C3D3E",
"%	c #282828",
"&	c #3C3D3F",
"*	c #B2B5B7",
"=	c #B2B4B7",
"-	c #3C3C3E",
";	c #B6B8BA",
">	c #DCDEE0",
",	c #DCDEE1",
"'	c #B6B7B9",
")	c #3B3B3D",
"!	c #363738",
"~	c #AEB0B3",
"{	c #E5E8E9",
"]	c #4E4E4F",
"^	c #AEB1B3",
"/	c #363839",
"(	c #343637",
"_	c #9EA1A4",
":	c #EAEBEC",
"<	c #5E5F60",
"[	c #EAEBED",
"}	c #9E9FA2",
"|	c #343536",
"1	c #292929",
"2	c #3B3D3E",
"3	c #A7AAAE",
"4	c #6D6E70",
"5	c #272727",
"6	c #6D6E6F",
"7	c #EAECEC",
"8	c #A7A9AD",
"9	c #2A2929",
"0	c #1F1F1E",
"a	c #828488",
"b	c #E4E5E7",
"c	c #68696B",
"d	c #262626",
"e	c #2C2C2B",
"f	c #818387",
"g	c #1F1F1F",
"h	c #454646",
"i	c #515153",
".................++",
"................+++",
"................+++",
"................+++",
"................+++",
".......@#$@.....+++",
"......%&*=-%.....++",
".....@&;>,')@...+++",
".....!~{]]{^/...+++",
"...+(_:<++<[}|+.+++",
"..123:45..5678)9+++",
"..0abcde..edcbfg+++",
"..1hi@+....+@ih1+++",
"................+++",
"................+++",
"................+++",
"................+++",
"................+++"};
